<svg width="292" height="57" viewBox="0 0 292 57" fill="none" xmlns="http://www.w3.org/2000/svg">
<rect width="292" height="57" fill="#F5F5F5"/>
<g clip-path="url(#clip0_0_1)">
<rect width="1440" height="18265" transform="translate(-579 -1372)" fill="white"/>
<g filter="url(#filter0_d_0_1)">
<rect width="1091.1" height="55.3882" rx="27.6941" transform="matrix(1 0 0 -1 -404.104 56.0073)" fill="url(#paint0_linear_0_1)" fill-opacity="0.85" shape-rendering="crispEdges"/>
</g>
<mask id="mask0_0_1" style="mask-type:alpha" maskUnits="userSpaceOnUse" x="-405" y="0" width="1092" height="57">
<rect width="1091.1" height="55.3882" rx="27.6941" transform="matrix(1 0 0 -1 -404.104 56.0073)" fill="url(#paint1_linear_0_1)" fill-opacity="0.9"/>
</mask>
<g mask="url(#mask0_0_1)">
<g style="mix-blend-mode:soft-light">
<circle cx="146" cy="14" r="146" fill="black"/>
</g>
<g style="mix-blend-mode:soft-light">
<circle cx="146" cy="14" r="82.5" stroke="black"/>
</g>
</g>
<path d="M120.426 20.3599H122.906L126.559 30.7993L130.211 20.3599H132.691L127.555 34.5786H125.563L120.426 20.3599ZM119.088 20.3599H121.559L122.008 30.5356V34.5786H119.088V20.3599ZM131.559 20.3599H134.039V34.5786H131.109V30.5356L131.559 20.3599ZM135.982 29.4028V29.1978C135.982 28.423 136.093 27.7101 136.315 27.0591C136.536 26.4015 136.858 25.8319 137.281 25.3501C137.704 24.8683 138.225 24.494 138.844 24.2271C139.462 23.9536 140.172 23.8169 140.973 23.8169C141.773 23.8169 142.486 23.9536 143.111 24.2271C143.736 24.494 144.26 24.8683 144.684 25.3501C145.113 25.8319 145.439 26.4015 145.66 27.0591C145.882 27.7101 145.992 28.423 145.992 29.1978V29.4028C145.992 30.1711 145.882 30.884 145.66 31.5415C145.439 32.1925 145.113 32.7622 144.684 33.2505C144.26 33.7323 143.74 34.1066 143.121 34.3735C142.503 34.6405 141.793 34.7739 140.992 34.7739C140.191 34.7739 139.479 34.6405 138.854 34.3735C138.235 34.1066 137.711 33.7323 137.281 33.2505C136.858 32.7622 136.536 32.1925 136.315 31.5415C136.093 30.884 135.982 30.1711 135.982 29.4028ZM138.795 29.1978V29.4028C138.795 29.8455 138.834 30.259 138.912 30.6431C138.99 31.0272 139.114 31.3657 139.283 31.6587C139.459 31.9451 139.687 32.1698 139.967 32.3325C140.247 32.4953 140.589 32.5767 140.992 32.5767C141.383 32.5767 141.718 32.4953 141.998 32.3325C142.278 32.1698 142.503 31.9451 142.672 31.6587C142.841 31.3657 142.965 31.0272 143.043 30.6431C143.128 30.259 143.17 29.8455 143.17 29.4028V29.1978C143.17 28.7681 143.128 28.3644 143.043 27.9868C142.965 27.6027 142.838 27.2642 142.662 26.9712C142.493 26.6717 142.268 26.4373 141.988 26.2681C141.708 26.0988 141.37 26.0142 140.973 26.0142C140.576 26.0142 140.237 26.0988 139.957 26.2681C139.684 26.4373 139.459 26.6717 139.283 26.9712C139.114 27.2642 138.99 27.6027 138.912 27.9868C138.834 28.3644 138.795 28.7681 138.795 29.1978ZM150.533 26.3169V34.5786H147.721V24.0122H150.367L150.533 26.3169ZM153.717 23.9438L153.668 26.5513C153.531 26.5317 153.365 26.5155 153.17 26.5024C152.981 26.4829 152.809 26.4731 152.652 26.4731C152.255 26.4731 151.91 26.5252 151.617 26.6294C151.331 26.7271 151.09 26.8735 150.895 27.0688C150.706 27.2642 150.563 27.5018 150.465 27.7817C150.374 28.0617 150.322 28.3807 150.309 28.7388L149.742 28.563C149.742 27.8794 149.811 27.2511 149.947 26.6782C150.084 26.0988 150.283 25.5942 150.543 25.1646C150.81 24.7349 151.135 24.4028 151.52 24.1685C151.904 23.9341 152.343 23.8169 152.838 23.8169C152.994 23.8169 153.154 23.8299 153.316 23.856C153.479 23.8755 153.613 23.9048 153.717 23.9438ZM159.713 34.7739C158.893 34.7739 158.157 34.6437 157.506 34.3833C156.855 34.1164 156.301 33.7485 155.846 33.2798C155.397 32.811 155.051 32.2674 154.811 31.6489C154.57 31.0239 154.449 30.3599 154.449 29.6567V29.2661C154.449 28.4653 154.563 27.7329 154.791 27.0688C155.019 26.4048 155.344 25.8286 155.768 25.3403C156.197 24.8521 156.718 24.4777 157.33 24.2173C157.942 23.9504 158.632 23.8169 159.4 23.8169C160.149 23.8169 160.813 23.9406 161.393 24.188C161.972 24.4354 162.457 24.7869 162.848 25.2427C163.245 25.6984 163.544 26.2453 163.746 26.8833C163.948 27.5148 164.049 28.2179 164.049 28.9927V30.1646H155.65V28.2896H161.285V28.0747C161.285 27.6841 161.214 27.3358 161.07 27.0298C160.934 26.7173 160.725 26.4699 160.445 26.2876C160.165 26.1053 159.807 26.0142 159.371 26.0142C159 26.0142 158.681 26.0955 158.414 26.2583C158.147 26.4211 157.929 26.6489 157.76 26.9419C157.597 27.2349 157.473 27.5799 157.389 27.9771C157.311 28.3677 157.272 28.7974 157.272 29.2661V29.6567C157.272 30.0799 157.33 30.4705 157.447 30.8286C157.571 31.1867 157.744 31.4959 157.965 31.7563C158.193 32.0168 158.466 32.2186 158.785 32.3618C159.111 32.505 159.479 32.5767 159.889 32.5767C160.397 32.5767 160.869 32.479 161.305 32.2837C161.747 32.0819 162.128 31.7791 162.447 31.3755L163.815 32.8599C163.593 33.1789 163.29 33.4849 162.906 33.7778C162.529 34.0708 162.073 34.3117 161.539 34.5005C161.005 34.6828 160.397 34.7739 159.713 34.7739Z" fill="white" fill-opacity="0.9"/>
</g>
<defs>
<filter id="filter0_d_0_1" x="-419.104" y="-4.38086" width="1121.1" height="85.3882" filterUnits="userSpaceOnUse" color-interpolation-filters="sRGB">
<feFlood flood-opacity="0" result="BackgroundImageFix"/>
<feColorMatrix in="SourceAlpha" type="matrix" values="0 0 0 0 0 0 0 0 0 0 0 0 0 0 0 0 0 0 127 0" result="hardAlpha"/>
<feOffset dy="10"/>
<feGaussianBlur stdDeviation="7.5"/>
<feComposite in2="hardAlpha" operator="out"/>
<feColorMatrix type="matrix" values="0 0 0 0 0 0 0 0 0 0 0 0 0 0 0 0 0 0 0.15 0"/>
<feBlend mode="normal" in2="BackgroundImageFix" result="effect1_dropShadow_0_1"/>
<feBlend mode="normal" in="SourceGraphic" in2="effect1_dropShadow_0_1" result="shape"/>
</filter>
<linearGradient id="paint0_linear_0_1" x1="107.827" y1="7.23138e-06" x2="1008.16" y2="251.337" gradientUnits="userSpaceOnUse">
<stop stop-color="#2372FF"/>
<stop offset="0.384314" stop-color="#286AFA"/>
<stop offset="0.68549" stop-color="#6C29D0"/>
<stop offset="1" stop-color="#6D28D3"/>
</linearGradient>
<linearGradient id="paint1_linear_0_1" x1="107.827" y1="7.23138e-06" x2="1008.16" y2="251.337" gradientUnits="userSpaceOnUse">
<stop stop-color="#2372FF"/>
<stop offset="0.384314" stop-color="#286AFA"/>
<stop offset="0.68549" stop-color="#6C29D0"/>
<stop offset="1" stop-color="#6D28D3"/>
</linearGradient>
<clipPath id="clip0_0_1">
<rect width="1440" height="18265" fill="white" transform="translate(-579 -1372)"/>
</clipPath>
</defs>
</svg>
