<?xml version="1.0" encoding="utf-8"?>
<!-- Generator: Adobe Illustrator 24.0.0, SVG Export Plug-In . SVG Version: 6.00 Build 0)  -->
<svg version="1.1" id="Layer_1" xmlns="http://www.w3.org/2000/svg" xmlns:xlink="http://www.w3.org/1999/xlink" x="0px" y="0px"
	 viewBox="0 0 512 512" style="enable-background:new 0 0 512 512;" xml:space="preserve">
<path d="M506.9,281.1l-120.8-57.5V89.1c0-3.2-1.9-6.3-4.8-7.9l-120.1-60c-2.5-1.3-5.7-1.3-8.2,0l-119.9,60l-0.1,0.1
	c-2.9,1.6-4.8,4.7-4.8,7.9v20c0,5,4,9,9,9c5,0,9-4,9-9v-5.3l102,51v119.9l-102-51v-34.4c0-5-4-9-9-9c-5,0-9,4-9,9v34.3L7.4,281.1
	l-0.2,0.1c-2.9,1.6-4.8,4.7-4.8,8v140c0,3.3,1.9,6.4,4.8,8l123.1,60.1c1.2,0.6,2.6,0.9,4,0.9c1.4,0,2.7-0.3,3.9-0.9l119-58l119,58
	l0.1,0.1c2.4,1.1,5.2,1.1,7.6,0l123.2-60.1c3.1-1.5,5-4.6,5-8.1v-140C512.1,285.7,510,282.4,506.9,281.1z M20.3,423.6v-120l105,51.2
	v120L20.3,423.6z M143.3,474.8v-120l105-51.2v120L143.3,474.8z M236.9,289.1l-102.7,50.1L32,289.4l105.1-50.1L236.9,289.1z
	 M494.3,303.6v120l-105,51.2v-120L494.3,303.6z M368.3,103.8v119.8l-102,51V154.8L368.3,103.8z M266.3,423.6v-120l105,51.2v120
	L266.3,423.6z M482.6,289.4l-102.3,49.9l-102.7-50.1l99.8-49.9L482.6,289.4z M357.2,89.2l-99.9,49.9l-99.9-49.9l99.9-49.9
	L357.2,89.2z"  />
</svg>
