<?xml version="1.0" encoding="utf-8"?>
<!-- Generator: Adobe Illustrator 24.0.0, SVG Export Plug-In . SVG Version: 6.00 Build 0)  -->
<svg version="1.1" id="Layer_1" xmlns="http://www.w3.org/2000/svg" xmlns:xlink="http://www.w3.org/1999/xlink" x="0px" y="0px"
	 viewBox="0 0 512 512" style="enable-background:new 0 0 512 512;" xml:space="preserve">
<g>
	<path d="M179.3,367.6c-1.5,1.5-1.5,3.9,0,5.4l18.2,18.2c1.4,1.4,3.9,1.4,5.4,0c1.5-1.5,1.5-3.9,0-5.4l-15.6-15.6l15.6-15.6
		c1.5-1.5,1.5-3.9,0-5.4c-0.7-0.7-1.7-1.1-2.7-1.1s-1.9,0.4-2.7,1.1L179.3,367.6z"/>
	<path d="M282.1,367.6l-18.2-18.2c-0.7-0.7-1.7-1.1-2.7-1.1s-1.9,0.4-2.7,1.1c-0.7,0.7-1.1,1.7-1.1,2.7s0.4,2,1.1,2.7l15.6,15.6
		L258.5,386c-1.5,1.5-1.5,3.9,0,5.4c1.4,1.4,3.9,1.4,5.4,0l18.2-18.2C283.5,371.5,283.5,369.1,282.1,367.6z"/>
	<path d="M243.6,342.2c-0.4-0.9-1.2-1.6-2.1-2c-0.4-0.2-0.9-0.2-1.3-0.2c-1.6,0-3,1-3.6,2.5l-20.5,56.3c-0.7,2,0.3,4.1,2.3,4.9
		c0.4,0.2,0.9,0.2,1.3,0.2c1.6,0,3-1,3.6-2.5l20.5-56.3C244,344.1,244,343.1,243.6,342.2z"/>
	<path d="M57.4,94.7c0.7-0.7,1.1-1.7,1.1-2.7c0-0.2,0-0.5-0.1-0.7l0,0c0-0.1-0.1-0.4-0.2-0.7c-0.1-0.2-0.2-0.4-0.3-0.6
		c-0.2-0.2-0.3-0.4-0.5-0.6c-0.7-0.7-1.7-1.1-2.7-1.1s-2,0.4-2.7,1.1c-0.2,0.2-0.3,0.4-0.5,0.6c-0.1,0.2-0.2,0.4-0.3,0.6
		C51.1,90.8,51,91,51,91.2c-0.1,0.3-0.1,0.5-0.1,0.8c0,1,0.4,2,1.1,2.7c0.7,0.7,1.7,1.1,2.7,1.1c0.2,0,0.5,0,0.7-0.1
		c0.2,0,0.5-0.1,0.7-0.2c0.3-0.1,0.5-0.2,0.7-0.4C57,95,57.2,94.8,57.4,94.7z"/>
	<path d="M82.4,94.7c0.7-0.7,1.1-1.7,1.1-2.7s-0.4-2-1.1-2.7s-1.7-1.1-2.7-1.1s-2,0.4-2.7,1.1C76.3,90,75.9,91,75.9,92
		s0.4,2,1.1,2.7s1.7,1.1,2.7,1.1C80.7,95.8,81.7,95.4,82.4,94.7z"/>
	<path d="M106.9,95.1c0.2-0.1,0.4-0.3,0.6-0.5c0.7-0.7,1.1-1.7,1.1-2.7c0-0.2,0-0.5-0.1-0.7c-0.1-0.3-0.1-0.5-0.2-0.7
		s-0.2-0.5-0.3-0.7c-0.2-0.3-0.3-0.4-0.4-0.6c-0.2-0.2-0.4-0.4-0.6-0.5s-0.4-0.2-0.6-0.3c-0.2-0.1-0.5-0.2-0.7-0.2s-0.5-0.1-0.7-0.1
		c-0.3,0-0.5,0-0.8,0.1c-0.2,0-0.5,0.1-0.7,0.2s-0.4,0.2-0.6,0.3c-0.2,0.1-0.4,0.3-0.6,0.5s-0.3,0.4-0.4,0.5
		c-0.2,0.2-0.3,0.5-0.4,0.7s-0.2,0.5-0.2,0.7s-0.1,0.5-0.1,0.7c0,1,0.4,2,1.1,2.7c0.2,0.2,0.4,0.3,0.5,0.4c0.2,0.2,0.4,0.3,0.6,0.3
		c0.3,0.1,0.5,0.2,0.7,0.2c0.6,0.1,1,0.1,1.5,0c0.3-0.1,0.5-0.1,0.7-0.2C106.5,95.4,106.7,95.3,106.9,95.1z"/>
	<path d="M375,471.4c18,0,32.7-14.7,32.7-32.7v-11.3h81.6c8.6,0,15.6-7,15.6-15.6V332c0-8.6-7-15.6-15.6-15.6h-81.6v-33.8h81.6
		c8.6,0,15.6-7,15.6-15.6v-79.8c0-8.6-7-15.6-15.6-15.6h-20.6c-2.1,0-3.8,1.7-3.8,3.8s1.7,3.8,3.8,3.8h20.6c4.4,0,8,3.7,8,8V267
		c0,4.4-3.7,8-8,8h-342c-4.4,0-8-3.7-8-8v-79.8c0-4.4,3.7-8,8-8h286.9c2.1,0,3.8-1.7,3.8-3.8s-1.7-3.8-3.8-3.8h-26.5V81.8
		c0-18-14.7-32.7-32.7-32.7c-150.5,0-233.5,0-279.3,0c-48.7,0-56.2,0-56.9,0.1c-0.2,0-0.3,0-0.5,0.1c-13.8,1-25.5,10.7-29.1,24
		c-1.3,4.7-1.3,6.3-1.2,47c0,13.2,0.1,30.4,0.1,53c0,2.1,1.7,3.8,3.8,3.8s3.8-1.7,3.8-3.8v-38.5h384.5v36.7H147.4
		c-8.6,0-15.6,7-15.6,15.6V267c0,8.6,7,15.6,15.6,15.6h252.8v33.8H147.4c-8.6,0-15.6,7-15.6,15.6v79.8c0,8.6,7,15.6,15.6,15.6h252.8
		v11.3c0,13.8-11.3,25.1-25.1,25.1H122c-2.1,0-3.8,1.7-3.8,3.8s1.7,3.8,3.8,3.8L375,471.4L375,471.4z M15.7,127.3v-3.6
		c0-8.3-0.1-15.1-0.1-21c-0.3-25.3-0.4-31.4,8.3-39.3c4.7-4.3,10.7-6.6,16.9-6.6H375c13.8,0,25.1,11.3,25.1,25.1v45.4
		C400.1,127.3,15.7,127.3,15.7,127.3z M147.4,419.8c-4.4,0-8-3.7-8-8V332c0-4.4,3.7-8,8-8h342c4.4,0,8,3.7,8,8v79.8c0,4.4-3.7,8-8,8
		H147.4z"/>
	<path d="M40.8,471.4h46.8c2.1,0,3.8-1.7,3.8-3.8c0-2.1-1.7-3.8-3.8-3.8H40.8c-13.8,0-25.1-11.3-25.1-25.1V207.9
		c0-2.1-1.7-3.8-3.8-3.8s-3.8,1.7-3.8,3.8v230.9C8.1,456.8,22.7,471.4,40.8,471.4z"/>
</g>
</svg>
