<?xml version="1.0" encoding="utf-8"?>
<!-- Generator: Adobe Illustrator 24.0.0, SVG Export Plug-In . SVG Version: 6.00 Build 0)  -->
<svg version="1.1" id="Layer_1" xmlns="http://www.w3.org/2000/svg" xmlns:xlink="http://www.w3.org/1999/xlink" x="0px" y="0px"
	 viewBox="0 0 512 512" style="enable-background:new 0 0 512 512;" xml:space="preserve">
<path d="M490.4,478c2.2,0,4.1-1.8,4.1-4.1c0-2.2-1.8-4.1-4.1-4.1H319.2c-2.2,0-4.1,1.8-4.1,4.1c0,2.2,1.8,4.1,4.1,4.1H490.4z"/>
<path d="M190,478c2.2,0,4.1-1.8,4.1-4.1c0-2.2-1.8-4.1-4.1-4.1H19.7c-2.2,0-4.1,1.8-4.1,4.1c0,2.2,1.8,4.1,4.1,4.1H190z"/>
<path d="M258.9,222.1c2.2,0,4.1-1.8,4.1-4.1c0-2.2-1.8-4.1-4.1-4.1h-74.1c-2.2,0-4.1,1.8-4.1,4.1c0,2.2,1.8,4.1,4.1,4.1H258.9z"/>
<path d="M258.9,298.7c2.2,0,4.1-1.8,4.1-4.1c0-2.2-1.8-4.1-4.1-4.1h-74.1c-2.2,0-4.1,1.8-4.1,4.1c0,2.2,1.8,4.1,4.1,4.1H258.9z"/>
<path d="M258.9,375.2c2.2,0,4.1-1.8,4.1-4.1c0-2.2-1.8-4.1-4.1-4.1h-74.1c-2.2,0-4.1,1.8-4.1,4.1c0,2.2,1.8,4.1,4.1,4.1H258.9z"/>
<path d="M374.1,372.5c0-13.4-6.2-25.8-17-33.9l-5.9-4.4l5.9-4.4c10.8-8.1,17-20.4,17-33.9s-6.2-25.8-17-33.9l-5.9-4.4l5.9-4.4
	c10.8-8.1,17-20.4,17-33.9c0-23.3-19-42.3-42.3-42.3H178.7c-23.3,0-42.3,19-42.3,42.3c0,13.4,6.2,25.8,17,33.9l5.9,4.4l-5.9,4.4
	c-10.8,8.1-17,20.4-17,33.9s6.2,25.8,17,33.9l5.9,4.4l-5.9,4.4c-10.8,8.1-17,20.4-17,33.9c0,23.3,19,42.3,42.3,42.3H251v35.9
	l-3.7,1.3c-9.3,3.3-15.5,12.1-15.5,21.9c0,6.2,2.4,12,6.8,16.4c4.4,4.4,10.2,6.8,16.4,6.8c12.8,0,23.2-10.4,23.2-23.2
	c0-9.8-6.2-18.6-15.5-21.9l-3.7-1.3v-35.9h72.6C355.1,414.8,374.1,395.9,374.1,372.5z M144.5,219.4c0-18.9,15.3-34.2,34.2-34.2
	h153.1c18.9,0,34.2,15.3,34.2,34.2s-15.3,34.2-34.2,34.2H178.7C159.8,253.6,144.5,238.3,144.5,219.4z M144.5,296
	c0-18.9,15.3-34.2,34.2-34.2h153.1c18.9,0,34.2,15.3,34.2,34.2c0,18.9-15.3,34.2-34.2,34.2H178.7C159.8,330.2,144.5,314.8,144.5,296
	z M270.2,474c0,8.3-6.8,15.1-15.1,15.1S240,482.3,240,474s6.8-15.1,15.1-15.1C263.4,458.9,270.2,465.7,270.2,474z M178.7,406.7
	c-18.9,0-34.2-15.3-34.2-34.2s15.3-34.2,34.2-34.2h153.1c18.9,0,34.2,15.3,34.2,34.2s-15.3,34.2-34.2,34.2H178.7z"/>
<path d="M494.5,227.1c0-22.6-6.8-44.4-19.6-63c-11.7-16.9-27.7-30.3-46.4-38.6l-2.1-0.9l-0.8-2.2C402.4,60.1,342.1,18.3,275.7,18.3
	c-38.9,0-76.5,14.2-105.7,39.9c-26.5,23.3-44.8,55.2-51.4,89.7l-0.9,4.7l-4.7-0.2c-1.4-0.1-2.8-0.1-4.2-0.1c-51.3,0-93,41.7-93,93
	c0,22.3,8,43.9,22.6,60.8c14.4,16.7,34.3,27.8,56,31.1c2.2,0.3,4.3-1.2,4.6-3.4c0.3-2.2-1.2-4.3-3.4-4.6
	c-41.6-6.5-71.7-41.8-71.7-83.9c0-46.8,38.1-84.9,84.9-84.9c3.9,0,7.9,0.3,11.9,0.8c1.1,0.2,2.1-0.1,3-0.8s1.4-1.6,1.6-2.7
	c10-74.8,74.7-131.3,150.4-131.3c64.9,0,122.6,41.2,143.7,102.5c0.4,1.1,1.2,2,2.3,2.5c39.3,15.8,64.7,53.3,64.7,95.7
	c0,48.8-34.6,91.2-82.3,101c-1.1,0.2-2,0.8-2.6,1.7c-0.6,0.9-0.8,2-0.6,3.1c0.4,2.2,2.6,3.6,4.8,3.2
	C457.2,325.5,494.5,279.7,494.5,227.1z"/>
</svg>
