<?xml version="1.0" encoding="utf-8"?>
<!-- Generator: Adobe Illustrator 24.0.0, SVG Export Plug-In . SVG Version: 6.00 Build 0)  -->
<svg version="1.1" id="Layer_1" xmlns="http://www.w3.org/2000/svg" xmlns:xlink="http://www.w3.org/1999/xlink" x="0px" y="0px"
	 viewBox="0 0 512 512" style="enable-background:new 0 0 512 512;" xml:space="preserve">
<path d="M502,374.3L502,374.3l-53.3-26.6l-33.6-87.3c-0.4-1-1.2-1.9-2.2-2.3l-204.8-81.9c-1.5-0.6-3.1-0.2-4.2,0.9l-27.3,27.3
	c-1.1,1.1-1.4,2.7-0.8,4.2l81.9,204.8c0.4,1,1.2,1.8,2.2,2.2l87.3,33.6l26.6,53.2c0.6,1.2,1.6,2,2.8,2.2c0.1,0,0.3,0,0.4,0l0.3,0
	c1.1,0,2-0.4,2.8-1.2L503,380.6c1-0.9,1.4-2.2,1.2-3.5C504,376,503.2,374.9,502,374.3z M264.3,408.9l-0.6-1.6L184,208.1l9-9
	l107.1,107.1l-1.9,2.7c-13.5,19.2-8.9,45.8,10.2,59.3c19.2,13.5,45.8,8.9,59.3-10.2c13.5-19.2,8.9-45.8-10.2-59.3
	c-14.7-10.4-34.4-10.4-49.1,0l-2.7,1.9L198.7,193.6l9-9l200.8,80.3l32.6,84.7l-91.9,91.9L264.3,408.9z M308.5,308.9
	c6.6-6.5,15.3-10.1,24.5-10.1c0,0,0,0,0,0h0c19.1,0,34.6,15.6,34.6,34.7c0,19.1-15.6,34.6-34.7,34.6c0,0,0,0-0.1,0
	c-19.1,0-34.6-15.6-34.6-34.7C298.3,324.2,301.9,315.5,308.5,308.9z M378.4,494l-23.5-47l91.5-91.5l47,23.5L378.4,494z"/>
<path d="M503,150.9c0.7-0.7,1.2-1.7,1.2-2.8c0-1.1-0.4-2-1.2-2.8l-34.7-34.7c-1.5-1.5-4-1.5-5.6,0l-15.8,15.7l-2.7-2.1
	c-66-49.7-154-59.9-229.7-26.7l-19.3,8.5l62.5-62.3l2.5,1.2c4.9,2.3,10.4,2.6,15.5,0.8c5.1-1.8,9.2-5.5,11.5-10.4
	c4.8-10.1,0.5-22.2-9.6-27c-10.1-4.8-22.2-0.5-27,9.6c-2.7,5.6-2.7,12.1,0.1,17.7l1.2,2.5l-81.2,81.3l-2.7-1.8
	c-16.8-11.3-39.6-6.8-50.8,10c-8.3,12.4-8.3,28.4,0,40.8l1.8,2.7l-81.3,81.2l-2.5-1.2c-4.9-2.4-10.4-2.7-15.5-0.9
	c-5.1,1.8-9.3,5.4-11.6,10.3c-2.4,4.9-2.7,10.4-0.9,15.5c1.8,5.1,5.4,9.3,10.3,11.6c4.9,2.4,10.4,2.7,15.5,0.9
	c5.1-1.8,9.3-5.4,11.6-10.3c2.8-5.7,2.8-12.1,0-17.8l-1.2-2.5l62.4-62.3L97.3,215C64,290.6,74.2,378.7,123.9,444.7l2.1,2.7
	l-15.8,15.8c-1.5,1.5-1.5,4,0,5.6l34.7,34.7c0.8,0.8,1.7,1.2,2.8,1.2c0,0,0,0,0,0c1,0,2.1-0.4,2.8-1.2l34.7-34.7
	c1.5-1.5,1.5-4,0-5.6l-34.5-34.8c-1.6-1.5-4.1-1.5-5.7,0l-13.2,13.2l-2.7-3.7c-55.9-75.9-57.5-179-4-256.6l2-2.9l3.1,1.7
	c17.7,9.7,40,3.3,49.7-14.4c6-11,6.1-24.1,0.1-35.1l-1.7-3.1l2.9-2c77.6-53.5,180.7-51.9,256.6,4l3.8,2.8l-13.5,13.2
	c-0.7,0.7-1.1,1.7-1.1,2.7c0,1.1,0.4,2.1,1.1,2.8l34.8,34.6c1.5,1.5,4,1.5,5.6,0L503,150.9z M260.2,18.2L260.2,18.2
	C260.2,18.1,260.3,18.1,260.2,18.2l0.2-0.2c4.8-4.7,12.5-4.7,17.3,0.1c2.3,2.3,3.6,5.4,3.7,8.7c0,3.3-1.3,6.4-3.6,8.8
	c-2.3,2.3-5.4,3.6-8.7,3.7c0,0,0,0-0.1,0c-3.3,0-6.4-1.3-8.7-3.6l-0.1-0.1c-2.3-2.3-3.6-5.4-3.6-8.7
	C256.6,23.6,257.9,20.5,260.2,18.2z M35.3,278l-0.4,0.4c-2.2,1.9-5,2.9-7.9,2.9c-0.4,0-0.8,0-1.1-0.1c-3.3-0.3-6.3-1.9-8.4-4.4
	c-3.8-4.6-3.8-11.3,0-15.8l0.3-0.3c4.8-4.7,12.6-4.7,17.4,0c2.4,2.4,3.6,5.4,3.6,8.7C38.7,272.7,37.5,275.7,35.3,278z M147.7,436.8
	l29.1,29.1L147.7,495l-29.1-29.1L147.7,436.8z M168,168.5c-5.4,5.4-12.6,8.4-20.3,8.4c0,0,0,0,0,0c-7.7,0-14.9-3-20.3-8.4
	c-5.4-5.4-8.4-12.6-8.4-20.3c0-7.7,3-14.9,8.4-20.3l0,0c5.4-5.4,12.6-8.4,20.2-8.4c0,0,0,0,0.1,0c7.6,0,14.8,3,20.2,8.3l0.1,0.1
	C179.2,139.1,179.2,157.3,168,168.5z M436.6,148l29.1-29.1l29.1,29.1l-29.1,29.1L436.6,148z"/>
</svg>
