<?xml version="1.0" encoding="utf-8"?>
<!-- Generator: Adobe Illustrator 24.0.0, SVG Export Plug-In . SVG Version: 6.00 Build 0)  -->
<svg version="1.1" id="Layer_1" xmlns="http://www.w3.org/2000/svg" xmlns:xlink="http://www.w3.org/1999/xlink" x="0px" y="0px"
	 viewBox="0 0 512 512" style="enable-background:new 0 0 512 512;" xml:space="preserve">
<g>
	<path d="M97.9,65.4c-15.3,0-27.7,12.4-27.7,27.7s12.4,27.7,27.7,27.7c15.3,0,27.8-12.4,27.8-27.7c0-7.4-2.9-14.3-8.1-19.6
		C112.3,68.3,105.3,65.4,97.9,65.4z M97.9,112.9c-10.9,0-19.8-8.9-19.8-19.7c0-10.9,8.9-19.7,19.8-19.7c10.9,0,19.8,8.9,19.8,19.7
		C117.7,104,108.8,112.9,97.9,112.9z"/>
	<path d="M393.7,65.4h-89.4c-15.3,0-27.7,12.4-27.7,27.7s12.4,27.7,27.7,27.7h89.4c15.3,0,27.7-12.4,27.7-27.7
		c0-7.4-2.9-14.3-8.1-19.6C408,68.3,401.1,65.4,393.7,65.4z M393.7,112.9h-89.4c-10.9,0-19.8-8.9-19.8-19.7s8.9-19.7,19.8-19.7h89.4
		c10.9,0,19.8,8.9,19.8,19.7S404.6,112.9,393.7,112.9z"/>
	<path d="M185.6,65.4c-15.3,0-27.7,12.4-27.7,27.7s12.4,27.7,27.7,27.7c15.3,0,27.8-12.4,27.8-27.7c0-7.4-2.9-14.3-8.1-19.6
		C199.9,68.3,193,65.4,185.6,65.4z M185.6,112.9c-10.9,0-19.8-8.9-19.8-19.7s8.9-19.7,19.8-19.7c10.9,0,19.8,8.9,19.8,19.7
		S196.5,112.9,185.6,112.9z"/>
	<path d="M150.6,320.9l20-83.7c0.2-1,0.1-2.1-0.5-3c-0.6-0.9-1.4-1.5-2.5-1.8l0,0c-0.3-0.1-0.6-0.1-0.9-0.1c-0.7,0-1.4,0.2-2.1,0.6
		c-0.9,0.6-1.5,1.4-1.8,2.5l-20,83.7c-0.5,2.1,0.8,4.3,2.9,4.8C148,324.4,150.1,323,150.6,320.9z"/>
	<path d="M244.1,273l-28.3-31.8c-0.7-0.8-1.7-1.3-2.7-1.3c-0.1,0-0.2,0-0.2,0c-1,0-1.9,0.4-2.6,1c-0.8,0.7-1.3,1.7-1.3,2.7
		c-0.1,1.1,0.3,2.1,1,2.9l28.2,31.6l-28.2,31.6c-1.5,1.6-1.3,4.2,0.3,5.6l0,0c0.9,0.8,2,1,2.6,1c0.7,0,1.9-0.2,3-1.3l28.3-31.7
		C246.7,280.5,246.7,275.8,244.1,273z"/>
	<path d="M103.3,315.4c0.8-0.7,1.3-1.7,1.3-2.7c0.1-1.1-0.3-2.1-1-2.9l-28.2-31.6l28.2-31.6c1.5-1.6,1.3-4.2-0.3-5.6v0
		c-0.8-0.7-1.7-1-2.6-1c-1.1,0-2.2,0.5-3,1.3l-28.3,31.7c-2.6,2.9-2.6,7.5-0.1,10.4l28.3,31.8c1,1.2,2.3,1.3,3,1.3
		C101.7,316.4,102.6,316.1,103.3,315.4z"/>
	<path d="M510.2,366.1c0-4.4-1.7-8.5-4.8-11.6c-3.1-3.1-7.3-4.8-11.7-4.8h-8.2l-1.3-4.3c-1.8-6-4.3-11.8-7.2-17.3l-2.1-4l5.8-5.9
		c3.1-3.1,4.8-7.2,4.9-11.6c0-4.4-1.7-8.6-4.8-11.7l-7-7V70.6c0-26.7-18.5-48.4-41.2-48.4H51.6c-22.7,0-41.2,21.7-41.2,48.4v281.9
		c0,26.7,18.5,48.4,41.2,48.4h59.2c2.2,0,4-1.8,4-4c0-2.2-1.8-4-4-4H51.6c-18,0-33.2-18.5-33.2-40.5V163.4h447.4v115.1l-7-1.1
		c-1-0.1-1.8-0.2-2.6-0.2c-4.4,0-8.6,1.7-11.6,4.8l-5.9,5.9l-4-2.1c-5.6-3-11.5-5.4-17.6-7.3l-4.3-1.3v-8.1
		c0-9.1-7.4-16.5-16.5-16.5H378c-9.1,0-16.5,7.4-16.5,16.5v8.3l-4.3,1.3c-5.9,1.9-11.7,4.3-17.2,7.2l-4,2.1l-5.8-5.8
		c-3.1-3.1-7.2-4.8-11.7-4.8c-4.4,0-8.6,1.7-11.7,4.8l-12.9,12.9c-3.1,3.1-4.8,7.3-4.8,11.7c0,4.4,1.7,8.5,4.8,11.6l6,6l-2.1,4
		c-2.8,5.4-5.2,11.1-7,17l-1.3,4.3h-8.3c-9.1,0-16.5,7.4-16.5,16.5v18.3c0,0.6,0,1.2,0.1,1.8l0.7,6.7h-65.5c-2.2,0-4,1.8-4,4
		s1.8,4,4,4h89.5l1.3,4.3c1.8,5.9,4.2,11.7,7.1,17.1l2.1,4l-5.9,5.9c-6.4,6.4-6.4,16.9,0,23.3l12.9,12.9c3.1,3.1,7.2,4.8,11.6,4.8
		c4.4,0,8.6-1.7,11.7-4.8l5.9-5.9l4,2.1c5.5,2.9,11.3,5.3,17.2,7.1l4.3,1.3v8.4c0,9.1,7.4,16.5,16.5,16.5h18.3
		c9.1,0,16.5-7.4,16.5-16.5v-8.4l4.3-1.3c5.9-1.8,11.7-4.2,17.3-7.1l4-2.1l5.9,5.8c3.1,3.1,7.2,4.8,11.7,4.8c4.4,0,8.6-1.7,11.7-4.8
		l12.9-12.9c3.1-3.1,4.8-7.2,4.8-11.6c0-4.4-1.7-8.6-4.8-11.7l-5.9-5.9l2.1-4c2.9-5.5,5.3-11.2,7.1-17.1l1.3-4.3h8.3
		c9.1,0,16.5-7.4,16.5-16.5V366.1z M18.4,155.4V70.6c0-21.9,15.2-40.5,33.2-40.5h380.9c18,0,33.2,18.5,33.2,40.5v84.8H18.4z
		 M502.3,384.4c0,4.7-3.8,8.5-8.5,8.5h-11.5c-1.9,0-3.5,1.3-3.9,3.1c-2.3,10.2-6.3,19.8-11.9,28.7c-1,1.6-0.8,3.6,0.6,4.9l8.2,8.2
		c1.6,1.6,2.5,3.7,2.5,6c0,2.3-0.9,4.4-2.5,6l-12.9,12.9c-1.6,1.6-3.8,2.5-6,2.5c-2.3,0-4.4-0.9-6-2.5l-8.2-8.1
		c-1.3-1.3-3.4-1.5-4.9-0.5c-8.9,5.6-18.6,9.6-28.8,11.9c-1.8,0.4-3.1,2-3.1,3.9v11.6c0,4.6-3.9,8.5-8.5,8.5h-18.3
		c-4.7,0-8.5-3.8-8.5-8.5v-11.6c0-1.9-1.3-3.5-3.1-3.9c-10.1-2.3-19.8-6.3-28.7-11.9c-1.5-1-3.7-0.7-4.9,0.6l-8.2,8.2
		c-1.6,1.6-3.7,2.5-6,2.5c-2.3,0-4.4-0.9-6-2.5l-12.9-12.9c-3.3-3.2-3.3-8.7,0-12l8.2-8.2c1.3-1.3,1.6-3.4,0.6-5
		c-5.6-8.8-9.6-18.5-11.9-28.7c-0.4-1.8-2-3.1-3.9-3.1h-11.6c-4.7,0-8.5-3.8-8.5-8.5v-18.3c0-4.7,3.8-8.5,8.5-8.5h11.6
		c1.9,0,3.5-1.3,3.9-3.1c2.3-10.1,6.3-19.7,11.8-28.5c1-1.6,0.8-3.6-0.6-4.9l-8.3-8.3c-1.6-1.6-2.5-3.7-2.5-6c0-2.3,0.9-4.4,2.5-6
		l12.9-12.9c1.6-1.6,3.8-2.5,6-2.5c2.3,0,4.4,0.9,6,2.5l8.1,8.1c1.3,1.3,3.4,1.5,4.9,0.5c8.8-5.6,18.5-9.6,28.7-12
		c1.8-0.4,3.1-2,3.1-3.9v-11.5c0-4.7,3.8-8.5,8.5-8.5h18.2c4.7,0,8.5,3.8,8.5,8.5v11.4c0,1.9,1.3,3.5,3.1,3.9
		c10.3,2.3,20.1,6.3,29.1,12c1.6,1,3.6,0.8,4.9-0.6l8.2-8.2c1.6-1.6,3.7-2.5,6-2.5c2.3,0,4.4,0.9,6,2.5l12.9,12.9
		c1.6,1.6,2.5,3.7,2.5,6c0,2.3-0.9,4.4-2.5,6l-8.1,8.2c-1.3,1.3-1.5,3.4-0.5,4.9c5.6,8.9,9.6,18.6,12,28.8c0.4,1.8,2,3.1,3.9,3.1
		h11.5c4.6,0,8.5,3.9,8.5,8.5V384.4z"/>
	<path d="M387.5,319.8c-30.6,0-55.5,24.9-55.5,55.5c0,30.6,24.9,55.5,55.5,55.5c30.6,0,55.5-24.9,55.5-55.5
		C443,344.7,418.1,319.8,387.5,319.8z M387.5,422.8c-26.2,0-47.6-21.3-47.6-47.5c0-26.2,21.3-47.5,47.6-47.5
		c26.2,0,47.5,21.3,47.5,47.5C435,401.5,413.7,422.8,387.5,422.8z"/>
	<path d="M155.6,392.9c-2.2,0-4,1.8-4,4s1.8,4,4,4h0.2c2.2,0,4-1.8,4-4s-1.8-4-4-4H155.6z"/>
</g>
</svg>
