<svg width="38" height="26" viewBox="0 0 38 26" fill="none" xmlns="http://www.w3.org/2000/svg">
<path d="M5.44737 20.3808C5.40951 20.3808 5.37165 20.3808 5.33379 20.3713C3.60164 20.1252 1.94521 19.5762 0.402364 18.7527C0.0332169 18.554 -0.108763 18.0996 0.0900088 17.7305C0.28878 17.3613 0.743115 17.2194 1.11226 17.4181C2.4942 18.1564 3.98972 18.6486 5.54203 18.8663C5.9585 18.9231 6.24246 19.3112 6.18567 19.7277C6.13834 20.1157 5.81652 20.3808 5.44737 20.3808Z" fill="#EF476F"/>
<path d="M32.4249 20.3808C32.0558 20.3808 31.7339 20.1063 31.6771 19.7277C31.6204 19.3112 31.9043 18.9326 32.3208 18.8663C33.8731 18.6392 35.3686 18.1564 36.7506 17.4181C37.1197 17.2194 37.574 17.3613 37.7728 17.7305C37.9716 18.0996 37.8296 18.5634 37.4604 18.7527C35.9176 19.5762 34.2612 20.1157 32.529 20.3713C32.5006 20.3808 32.4628 20.3808 32.4249 20.3808Z" fill="#EF476F"/>
<path d="M24.5029 13.5785C24.3609 13.5785 24.219 13.5406 24.0864 13.4554C23.7362 13.2283 23.6321 12.755 23.8687 12.4048C24.9383 10.7578 26.7557 9.77344 28.715 9.77344C29.1314 9.77344 29.4722 10.1142 29.4722 10.5307C29.4722 10.9471 29.1314 11.2879 28.715 11.2879C27.2668 11.2879 25.9227 12.0167 25.1371 13.2283C24.9951 13.4649 24.7585 13.5785 24.5029 13.5785Z" fill="#EF476F"/>
<path d="M30.3976 11.307C27.7095 11.307 25.4473 9.03529 25.4473 6.35661C25.4473 3.67792 27.7189 1.40625 30.3976 1.40625C33.0858 1.40625 35.348 3.67792 35.348 6.35661C35.348 9.03529 33.0858 11.307 30.3976 11.307ZM30.3976 2.9207C28.533 2.9207 26.9617 4.49194 26.9617 6.35661C26.9617 8.22127 28.533 9.79251 30.3976 9.79251C32.2623 9.79251 33.8335 8.22127 33.8335 6.35661C33.8335 4.49194 32.2623 2.9207 30.3976 2.9207Z" fill="#EF476F"/>
<path d="M37.1111 16.3351C36.6947 16.3351 36.3539 15.9944 36.3539 15.5779C36.3539 13.2211 34.4324 11.2996 32.0756 11.2996C31.6591 11.2996 31.3184 10.9589 31.3184 10.5424C31.3184 10.1259 31.6591 9.78516 32.0756 9.78516C35.2654 9.78516 37.8684 12.3787 37.8684 15.5779C37.8684 15.9944 37.5276 16.3351 37.1111 16.3351Z" fill="#EF476F"/>
<path d="M32.0738 11.2996H28.723C28.3066 11.2996 27.9658 10.9589 27.9658 10.5424C27.9658 10.1259 28.3066 9.78516 28.723 9.78516H32.0738C32.4902 9.78516 32.831 10.1259 32.831 10.5424C32.831 10.9589 32.4902 11.2996 32.0738 11.2996Z" fill="#EF476F"/>
<path d="M37.1107 18.8603C36.6943 18.8603 36.3535 18.5196 36.3535 18.1031V15.5853C36.3535 15.1689 36.6943 14.8281 37.1107 14.8281C37.5272 14.8281 37.868 15.1689 37.868 15.5853V18.1031C37.868 18.5196 37.5272 18.8603 37.1107 18.8603Z" fill="#EF476F"/>
<path d="M9.9916 19.4168C9.57513 19.4168 9.23438 19.076 9.23438 18.6595C9.23438 14.5421 12.5851 11.1914 16.7025 11.1914C17.119 11.1914 17.4597 11.5322 17.4597 11.9486C17.4597 12.3651 17.119 12.7059 16.7025 12.7059C13.418 12.7059 10.7488 15.3751 10.7488 18.6595C10.7488 19.076 10.4081 19.4168 9.9916 19.4168Z" fill="#EF476F"/>
<path d="M21.1679 12.7059H16.6908C16.2743 12.7059 15.9336 12.3651 15.9336 11.9486C15.9336 11.5322 16.2743 11.1914 16.6908 11.1914H21.1679C21.5844 11.1914 21.9251 11.5322 21.9251 11.9486C21.9251 12.3651 21.5938 12.7059 21.1679 12.7059Z" fill="#EF476F"/>
<path d="M13.3707 13.5807C13.1246 13.5807 12.8785 13.4577 12.7365 13.24C11.9414 12.0284 10.6068 11.2996 9.15859 11.2996C8.74212 11.2996 8.40137 10.9589 8.40137 10.5424C8.40137 10.1259 8.74212 9.78516 9.15859 9.78516C11.1274 9.78516 12.9352 10.7695 14.0048 12.4165C14.232 12.7667 14.1373 13.24 13.7871 13.4672C13.6546 13.5429 13.5126 13.5807 13.3707 13.5807Z" fill="#EF476F"/>
<path d="M9.9916 22.7636C9.57513 22.7636 9.23438 22.4229 9.23438 22.0064V18.6557C9.23438 18.2392 9.57513 17.8984 9.9916 17.8984C10.4081 17.8984 10.7488 18.2392 10.7488 18.6557V22.0064C10.7488 22.4229 10.4081 22.7636 9.9916 22.7636Z" fill="#EF476F"/>
<path d="M18.9372 12.7024C15.4918 12.7024 12.5859 9.79659 12.5859 6.35122C12.5859 2.90585 15.4918 0 18.9372 0C22.3825 0 25.2884 2.90585 25.2884 6.35122C25.2884 9.79659 22.3825 12.7024 18.9372 12.7024ZM18.9372 1.51445C16.3153 1.51445 14.1004 3.72933 14.1004 6.35122C14.1004 8.97311 16.3153 11.188 18.9372 11.188C21.5591 11.188 23.7739 8.97311 23.7739 6.35122C23.7739 3.72933 21.5591 1.51445 18.9372 1.51445Z" fill="#EF476F"/>
<path d="M27.8793 19.4168C27.4628 19.4168 27.122 19.076 27.122 18.6595C27.122 15.3751 24.4528 12.7059 21.1684 12.7059C20.7519 12.7059 20.4111 12.3651 20.4111 11.9486C20.4111 11.5322 20.7519 11.1914 21.1684 11.1914C25.2858 11.1914 28.6365 14.5421 28.6365 18.6595C28.6365 19.076 28.2957 19.4168 27.8793 19.4168Z" fill="#EF476F"/>
<path d="M27.8803 22.7636C27.4638 22.7636 27.123 22.4229 27.123 22.0064V18.6557C27.123 18.2392 27.4638 17.8984 27.8803 17.8984C28.2967 17.8984 28.6375 18.2392 28.6375 18.6557V22.0064C28.6375 22.4229 28.2967 22.7636 27.8803 22.7636Z" fill="#EF476F"/>
<path d="M18.9363 25.0031C15.737 25.0031 12.5472 24.2269 9.63186 22.6746C9.26271 22.4758 9.12073 22.0215 9.3195 21.6524C9.51827 21.2832 9.97261 21.1412 10.3418 21.34C15.718 24.208 22.145 24.208 27.5213 21.34C27.8904 21.1412 28.3542 21.2832 28.5435 21.6524C28.7423 22.0215 28.6003 22.4758 28.2312 22.6746C25.3253 24.2269 22.1355 25.0031 18.9363 25.0031Z" fill="#EF476F"/>
<path d="M7.47184 11.307C4.78369 11.307 2.52148 9.03529 2.52148 6.35661C2.52148 3.67792 4.79316 1.40625 7.47184 1.40625C10.1505 1.40625 12.4222 3.67792 12.4222 6.35661C12.4222 9.03529 10.1505 11.307 7.47184 11.307ZM7.47184 2.9207C5.60717 2.9207 4.03593 4.49194 4.03593 6.35661C4.03593 8.22127 5.60717 9.79251 7.47184 9.79251C9.33651 9.79251 10.9077 8.22127 10.9077 6.35661C10.9077 4.49194 9.33651 2.9207 7.47184 2.9207Z" fill="#EF476F"/>
<path d="M0.763084 16.3351C0.34661 16.3351 0.00585938 15.9944 0.00585938 15.5779C0.00585938 12.3881 2.59935 9.78516 5.79863 9.78516C6.2151 9.78516 6.55585 10.1259 6.55585 10.5424C6.55585 10.9589 6.2151 11.2996 5.79863 11.2996C3.44177 11.2996 1.52031 13.2211 1.52031 15.5779C1.52031 15.9944 1.17956 16.3351 0.763084 16.3351Z" fill="#EF476F"/>
<path d="M9.14994 11.2996H5.79922C5.38274 11.2996 5.04199 10.9589 5.04199 10.5424C5.04199 10.1259 5.38274 9.78516 5.79922 9.78516H9.14994C9.56641 9.78516 9.90716 10.1259 9.90716 10.5424C9.90716 10.9589 9.56641 11.2996 9.14994 11.2996Z" fill="#EF476F"/>
<path d="M0.763084 18.8603C0.34661 18.8603 0.00585938 18.5196 0.00585938 18.1031V15.5853C0.00585938 15.1689 0.34661 14.8281 0.763084 14.8281C1.17956 14.8281 1.52031 15.1689 1.52031 15.5853V18.1031C1.52031 18.5196 1.17956 18.8603 0.763084 18.8603Z" fill="#EF476F"/>
</svg>
