<?xml version="1.0" encoding="utf-8"?>
<!-- Generator: Adobe Illustrator 24.0.0, SVG Export Plug-In . SVG Version: 6.00 Build 0)  -->
<svg version="1.1" id="Layer_1" xmlns="http://www.w3.org/2000/svg" xmlns:xlink="http://www.w3.org/1999/xlink" x="0px" y="0px"
	 viewBox="0 0 512 512" style="enable-background:new 0 0 512 512;" xml:space="preserve">
<g>
	<path d="M245.2,382.5l-17.3-12.7l0.4-3.5c0.6-5.5,0.6-11.2,0-16.7l-0.4-3.5l17.3-12.7c1.6-1.2,2-3.3,1.1-5l0,0l-20-34.7
		c-1-1.7-3.1-2.4-4.9-1.6l-19.6,8.6l-2.9-2.1c-4.5-3.3-9.4-6.1-14.5-8.4l-3.3-1.4l-2.4-21.3c-0.2-2-1.9-3.4-3.8-3.4h-40
		c-2,0-3.6,1.5-3.8,3.4l-2.4,21.3l-3.3,1.4c-5.1,2.2-10,5-14.5,8.4l-2.9,2.1L88.4,292c-1.8-0.8-3.9-0.1-4.9,1.6l-20,34.7
		c-1,1.7-0.5,3.9,1.1,5L81.8,346l-0.4,3.5c-0.6,5.6-0.6,11.2,0,16.7l0.4,3.5l-17.3,12.7c-1.6,1.2-2,3.3-1.1,5l20,34.7
		c1,1.7,3.1,2.4,4.9,1.6l19.6-8.6l2.9,2.1c4.5,3.3,9.4,6.1,14.5,8.4l3.3,1.4l2.4,21.3c0.2,2,1.9,3.4,3.8,3.4h40c2,0,3.6-1.5,3.8-3.4
		l2.4-21.3l3.3-1.4c5.1-2.2,10-5,14.5-8.4l2.9-2.1l19.6,8.6c1.8,0.8,3.9,0.1,4.9-1.6l20-34.7C247.2,385.8,246.7,383.7,245.2,382.5z
		 M221.2,415.4l-18.8-8.2c-1.4-0.6-3-0.4-4.1,0.6c-6.5,5.7-14,10-22.1,12.8c-1.4,0.5-2.4,1.7-2.6,3.2l-2.3,20.3h-33.1l-2.3-20.3
		c-0.2-1.5-1.2-2.7-2.6-3.2c-8.2-2.8-15.6-7.1-22.1-12.8c-1.1-1-2.7-1.2-4.1-0.6l-18.8,8.2l-16.6-28.7l16.5-12.1
		c1.2-0.9,1.8-2.4,1.5-3.8c-1.6-8.4-1.6-17.2,0-25.6c0.3-1.5-0.3-3-1.5-3.8l-16.5-12.1l16.6-28.7l18.8,8.2c1.4,0.6,3,0.4,4.1-0.6
		c6.5-5.7,14-10,22.1-12.8c1.4-0.5,2.4-1.7,2.6-3.2l2.3-20.3h33.1l2.3,20.3c0.2,1.5,1.2,2.7,2.6,3.2c8.2,2.8,15.6,7.1,22.1,12.8
		c1.1,1,2.7,1.2,4.1,0.6l18.8-8.2l16.6,28.7l-16.5,12.1c-1.2,0.9-1.8,2.4-1.5,3.8c1.6,8.4,1.6,17.2,0,25.6c-0.3,1.5,0.3,3,1.5,3.8
		l16.5,12.1L221.2,415.4z"/>
	<path d="M154.9,386.6c13.8,0,28.1-8.9,28.9-28.8c-0.1-15.9-13-28.8-28.9-28.8s-28.8,12.9-28.9,28.8
		C126.8,377.7,141.1,386.6,154.9,386.6z M154.9,336.9C154.9,336.9,154.9,336.9,154.9,336.9c10.1,0,20.6,7.2,21.2,20.8l0,0.2
		c0,11.7-9.5,21.2-21.2,21.2s-21.2-9.5-21.2-21.2l0-0.2C134.2,344,144.7,336.9,154.9,336.9z"/>
	<path d="M463.4,258.8l0.2-0.2c27.3-26.2,43-64.3,43-104.6c0-40.3-15.7-78.4-43-104.6l-0.2-0.2c-26.2-27.3-64.3-43-104.6-43
		c-40.3,0-78.4,15.7-104.6,43l-0.1,0.1c-12.4,12.4-22.5,26.9-29.9,43.1l-5.7,12.4l-5.6-12.6c-0.4-0.9-1.2-1.7-2.1-2
		c-1-0.4-2-0.3-2.9,0.1c-0.9,0.4-1.7,1.2-2,2.1c-0.4,1-0.3,2,0.1,3l10.1,22.9c0.4,0.9,1.2,1.7,2.1,2c1,0.4,2,0.3,2.9-0.1l22.9-10.1
		c0.9-0.4,1.7-1.2,2-2.1c0.4-1,0.3-2-0.1-3c-0.9-1.9-3.1-2.8-5.1-2l-16.4,7.2l6.8-14.8c7-15.2,16.5-28.9,28.3-40.7
		c25-26,61.1-40.9,99.3-40.9c38.1,0,74.3,14.9,99.2,40.8c26,25,40.8,61.1,40.8,99.2c0,38.1-14.9,74.3-40.8,99.2
		c-25,26-61.1,40.8-99.2,40.8c0,0,0,0,0,0c-38.1,0-74.3-14.9-99.3-40.9c-22.6-22.5-51.1-36.9-82.6-41.7
		c-30.8-4.6-61.8,0.4-89.4,14.5c-0.9,0.5-1.6,1.3-1.9,2.2c-0.3,1-0.2,2,0.2,2.9c0.5,0.9,1.3,1.6,2.2,1.9c1,0.3,2,0.2,2.9-0.2
		c20.3-10.4,42.2-15.4,63.9-15.4c36.3,0,72.1,14.2,99.2,41.2l0.1,0.1c26.2,27.3,64.3,43,104.6,43
		C399.1,301.7,437.2,286.1,463.4,258.8z"/>
	<path d="M449.1,178.6l-17.3-12.7l0.4-3.5c0.6-5.5,0.6-11.2,0-16.7l-0.4-3.5l17.3-12.7c1.6-1.2,2-3.3,1.1-5l-20-34.7
		c-1-1.7-3.1-2.4-4.9-1.6l-19.6,8.6l-2.9-2.1c-4.5-3.3-9.4-6.1-14.5-8.4l-3.3-1.4l-2.4-21.3c-0.2-2-1.9-3.4-3.8-3.4h-40
		c-2,0-3.6,1.5-3.8,3.4l-2.4,21.3l-3.3,1.4c-5.1,2.2-10,5-14.5,8.4l-2.9,2.1l-19.6-8.6c-1.8-0.8-3.9-0.1-4.9,1.6l-20,34.7
		c-1,1.7-0.5,3.9,1.1,5l17.3,12.7l-0.4,3.5c-0.6,5.6-0.6,11.2,0,16.7l0.4,3.5l-17.3,12.7c-1.6,1.2-2,3.3-1.1,5l20,34.7
		c1,1.7,3.1,2.4,4.9,1.6l19.6-8.6l2.9,2.1c4.5,3.3,9.4,6.1,14.5,8.4l3.3,1.4l2.4,21.3c0.2,2,1.9,3.4,3.8,3.4h40c2,0,3.6-1.5,3.8-3.4
		l2.4-21.3l3.3-1.4c5.1-2.2,10-5,14.5-8.4l2.9-2.1l19.6,8.6c1.8,0.8,3.9,0.1,4.9-1.6l20-34.7C451.1,181.9,450.7,179.7,449.1,178.6z
		 M425.2,211.4l-18.8-8.2c-1.4-0.6-3-0.3-4.1,0.6c-6.5,5.7-14,10-22.1,12.8c-1.4,0.5-2.4,1.7-2.6,3.2l-2.3,20.3h-33.1l-2.3-20.3
		c-0.2-1.5-1.2-2.7-2.6-3.2c-8.2-2.8-15.6-7.1-22.1-12.8c-1.1-1-2.7-1.2-4.1-0.6l-18.8,8.2l-16.6-28.7l16.5-12.1
		c1.2-0.9,1.8-2.4,1.5-3.8c-1.6-8.4-1.6-17.2,0-25.6c0.3-1.5-0.3-3-1.5-3.8l-16.5-12.1l16.6-28.7l18.8,8.2c1.4,0.6,3,0.4,4.1-0.6
		c6.5-5.7,14-10,22.1-12.8c1.4-0.5,2.4-1.7,2.6-3.2l2.3-20.3h33.1l2.3,20.3c0.2,1.5,1.2,2.7,2.6,3.2c8.2,2.8,15.6,7.1,22.1,12.8
		c1.1,1,2.7,1.2,4.1,0.6l18.8-8.2l16.6,28.7l-16.5,12.1c-1.2,0.9-1.8,2.4-1.5,3.8c1.6,8.4,1.6,17.2,0,25.6c-0.3,1.5,0.3,3,1.5,3.8
		l16.5,12.1L425.2,211.4z"/>
	<path d="M358.8,125.3C358.8,125.3,358.8,125.3,358.8,125.3c-13.8,0-28.1,8.9-28.9,28.8c0.1,15.9,13,28.8,28.9,28.8
		s28.8-12.9,28.9-28.8C386.9,134.2,372.6,125.3,358.8,125.3z M358.8,175C358.8,175,358.8,175,358.8,175c-10.1,0-20.6-7.2-21.2-20.8
		l0-0.2c0-11.7,9.5-21.2,21.2-21.2S380,142.3,380,154l0,0.2C379.4,167.9,368.9,175,358.8,175z"/>
	<path d="M297.7,393.7c-0.4-0.9-1.2-1.7-2.1-2c-1-0.4-2-0.3-3,0.1l-22.8,10.1c-3.2,1.6-2.5,4.1-2,5.1c0.4,1,1.8,3.2,5.1,1.9
		l16.3-7.2l-6.8,14.8c-7,15.2-16.5,28.9-28.3,40.7c-25,26-61.1,40.9-99.3,40.9c-38.1,0-74.3-14.9-99.3-40.9
		c-43.1-43.2-53.5-108.7-25.8-163c0.5-0.9,0.6-2,0.2-2.9s-1-1.8-1.9-2.2c-0.6-0.3-1.1-0.4-1.7-0.4c-0.4,0-0.8,0.1-1.2,0.2
		c-1,0.3-1.8,1-2.2,1.9c-29.3,55.8-17.9,128.1,27.2,172l0.1,0.1c33.6,34.2,82.5,49.4,130.7,40.7c48.4-8.7,88.9-40,108.5-83.8
		l5.6-12.6l5.6,12.7c0.6,1.4,2,2.3,3.5,2.3c0.5,0,1.1-0.1,1.6-0.3c0.9-0.4,1.7-1.2,2-2.1c0.4-1,0.3-2-0.1-3L297.7,393.7z"/>
	<path d="M50.5,253L50.5,253c-1.7,1.4-1.9,3.8-0.5,5.5c0.7,0.9,1.8,1.4,3,1.4c0.6,0,1.6-0.2,2.5-0.9c1.6-1.4,1.9-3.8,0.5-5.4
		C54.5,251.9,52.1,251.6,50.5,253z"/>
</g>
</svg>
