<?xml version="1.0" encoding="utf-8"?>
<!-- Generator: Adobe Illustrator 24.0.0, SVG Export Plug-In . SVG Version: 6.00 Build 0)  -->
<svg version="1.1" id="Layer_1" xmlns="http://www.w3.org/2000/svg" xmlns:xlink="http://www.w3.org/1999/xlink" x="0px" y="0px"
	 viewBox="0 0 512 512" style="enable-background:new 0 0 512 512;" xml:space="preserve">
<g>
	<path d="M58.2,180c0.7-0.7,1.2-1.8,1.2-2.8c0-1-0.4-2.1-1.2-2.8l0,0c-0.7-0.7-1.8-1.2-2.8-1.2s-2.1,0.4-2.8,1.2
		c-0.7,0.7-1.2,1.8-1.2,2.8c0,1,0.4,2.1,1.2,2.8c0.7,0.7,1.8,1.2,2.8,1.2C56.4,181.2,57.4,180.7,58.2,180z"/>
	<path d="M75.4,506.2h364c13.2,0,24-10.8,24-24v-452c0-13.2-10.8-24-24-24H237c-2.2,0-4,1.8-4,4s1.8,4,4,4h202.3c8.8,0,16,7.2,16,16
		v452c0,8.8-7.2,16-16,16h-364c-8.8,0-16-7.2-16-16V214.5c0-2.2-1.8-4-4-4s-4,1.8-4,4v267.7C51.4,495.4,62.1,506.2,75.4,506.2z"/>
	<path d="M132.8,191.3c-0.6,0.9-0.9,1.9-0.7,3c4.9,29.3,20.1,56.1,42.8,75.5c22.9,19.6,52.2,30.4,82.4,30.4c70,0,127-57,127-127
		c0-70-57-127-127-127c-6.5,0-13,0.5-19.4,1.5c-2.2,0.3-3.7,2.4-3.3,4.6c0.3,2.2,2.4,3.7,4.6,3.3c6-0.9,12.1-1.4,18.2-1.4
		c65.6,0,119,53.4,119,119c0,28-9.9,55.2-28,76.6l-5.5,6.5l-4.3-7.4c-7-12-16.3-22.1-27.7-30c-6.6-4.6-13.8-8.3-21.3-11.1l-9-3.3
		l6.8-6.7c8.4-8.2,13-19.1,13-30.7v-9.8c0-23.7-19.3-43-43-43s-43,19.3-43,43v9.8c0,11.6,4.6,22.6,13,30.7l6.8,6.7l-9,3.3
		c-7.6,2.8-14.7,6.5-21.3,11.1c-11.5,8-20.9,18.1-27.8,30.2l-4.3,7.4l-5.5-6.5C152.6,233.7,143.5,214,140,193c-0.3-2-2-3.3-3.9-3.3
		c-0.2,0-0.4,0-0.7,0.1C134.3,189.9,133.4,190.5,132.8,191.3z M222.4,167.2v-9.8c0-19.3,15.7-35,35-35s35,15.7,35,35v9.8
		c0,19.3-15.7,35-35,35S222.4,186.5,222.4,167.2z M180.3,258c14.5-29.5,44.1-47.9,77.1-47.9c32.9,0,62.4,18.3,77,47.7l2.1,4.3
		l-3.7,3c-21.2,17.4-48,27-75.4,27c-27.5,0-54.3-9.5-75.5-26.8l-3.7-3L180.3,258z"/>
	<path d="M349.7,404.2h-142c-2.2,0-4,1.8-4,4s1.8,4,4,4h142c2.2,0,4-1.8,4-4S351.9,404.2,349.7,404.2z"/>
	<path d="M165,356.2c1,0,2.1-0.4,2.8-1.2c0.7-0.7,1.2-1.8,1.2-2.8s-0.4-2.1-1.2-2.8l0,0c-0.7-0.7-1.8-1.2-2.8-1.2
		c-1,0-2.1,0.4-2.8,1.2c-0.7,0.7-1.2,1.8-1.2,2.8c0,1,0.4,2.1,1.2,2.8C162.9,355.7,164,356.2,165,356.2z"/>
	<path d="M165,412.2c1,0,2.1-0.4,2.8-1.2c0.8-0.7,1.2-1.8,1.2-2.8c0-1-0.4-2.1-1.2-2.8l0,0c-0.7-0.7-1.8-1.2-2.8-1.2
		c-1,0-2.1,0.4-2.8,1.2c-0.7,0.7-1.2,1.8-1.2,2.8c0,1,0.4,2.1,1.2,2.8C162.9,411.7,164,412.2,165,412.2z"/>
	<path d="M349.7,348.2h-142c-2.2,0-4,1.8-4,4s1.8,4,4,4h142c2.2,0,4-1.8,4-4S351.9,348.2,349.7,348.2z"/>
	<path d="M95.2,89.1l18.2,18.2c0.8,0.8,1.8,1.2,2.8,1.2s2.1-0.4,2.8-1.2l39.6-39.6c1.6-1.6,1.6-4.1,0-5.7c-1.6-1.6-4.1-1.6-5.7,0
		l-36.8,36.8l-15.4-15.4c-0.8-0.8-1.8-1.2-2.8-1.2c-1,0-2.1,0.4-2.8,1.2C93.7,85,93.7,87.6,95.2,89.1z"/>
	<path d="M127.4,6.2c-41.9,0-76,34.1-76,76s34.1,76,76,76s76-34.1,76-76S169.3,6.2,127.4,6.2z M127.4,150.2c-37.5,0-68-30.5-68-68
		s30.5-68,68-68s68,30.5,68,68S164.8,150.2,127.4,150.2z"/>
</g>
</svg>
