<?xml version="1.0" encoding="utf-8"?>
<!-- Generator: Adobe Illustrator 24.0.0, SVG Export Plug-In . SVG Version: 6.00 Build 0)  -->
<svg version="1.1" id="Layer_1" xmlns="http://www.w3.org/2000/svg" xmlns:xlink="http://www.w3.org/1999/xlink" x="0px" y="0px"
	 viewBox="0 0 512 512" style="enable-background:new 0 0 512 512;" xml:space="preserve">
<g>
	<path d="M288.9,41.8h-39.7c-2.3,0-4.2,1.9-4.2,4.2c0,2.3,1.9,4.2,4.2,4.2h39.7c2.3,0,4.2-1.9,4.2-4.2
		C293.1,43.7,291.2,41.8,288.9,41.8z"/>
	<path d="M213.9,470.2h70.7c2.3,0,4.2-1.9,4.2-4.2c0-2.3-1.9-4.2-4.2-4.2h-70.7c-2.3,0-4.2,1.9-4.2,4.2
		C209.7,468.3,211.6,470.2,213.9,470.2z"/>
	<path d="M389.4,123.2l0-3.9c0-6.5,0-25.6,0-79.3c0-15.1-12.3-27.4-27.5-27.4H136.6c-14.9,0-27.5,12.6-27.5,27.5v348.4
		c0,2.3,1.9,4.2,4.2,4.2c2.3,0,4.2-1.9,4.2-4.2v-309H381v43.8c0,2.3,1.9,4.2,4.2,4.2C387.5,127.4,389.4,125.5,389.4,123.2z
		 M381,71.1H117.5V40c0-10.5,8.6-19.1,19.1-19.1h225.3c10.5,0,19.1,8.6,19.1,19.1V71.1z"/>
	<path d="M299.9,203c0.8,0.8,1.8,1.2,2.9,1.2c0,0,0,0,0,0c1.1,0,2.2-0.4,2.9-1.2l32.6-32.9c1.6-1.6,1.6-4.3,0-5.9l-32.6-32.9
		c-0.8-0.8-1.9-1.2-3-1.2c-1.1,0-2.1,0.4-2.9,1.2c-0.8,0.8-1.2,1.8-1.2,2.9c0,1.1,0.4,2.2,1.2,3l29.7,30l-29.7,30
		c-0.8,0.8-1.2,1.8-1.2,3C298.7,201.1,299.1,202.2,299.9,203L299.9,203z"/>
	<path d="M160,164.1c-1.6,1.6-1.6,4.3,0,5.9l32.6,32.9c1.6,1.6,4.3,1.6,5.9,0c0.8-0.8,1.2-1.8,1.2-2.9c0-1.1-0.4-2.2-1.2-3l-29.7-30
		l29.7-30c0.8-0.8,1.2-1.8,1.2-3c0-1.1-0.4-2.2-1.2-2.9l0,0c-0.8-0.8-1.8-1.2-2.9-1.2c0,0,0,0,0,0c-1.1,0-2.2,0.4-2.9,1.2L160,164.1
		z"/>
	<path d="M270.6,105.6c-0.5-0.2-1-0.3-1.6-0.3c-0.6,0-1.1,0.1-1.6,0.3c-1,0.4-1.8,1.3-2.2,2.3v0l-45.8,115.2c-0.4,1-0.4,2.2,0,3.2
		c0.4,1,1.3,1.8,2.3,2.2c1,0.4,2.2,0.4,3.2,0c1-0.4,1.8-1.3,2.2-2.3L272.9,111c0.4-1,0.4-2.2,0-3.2
		C272.5,106.8,271.6,106,270.6,105.6z"/>
	<path d="M385.2,254.7c-20.8,0-37.8,17-37.8,37.8s17,37.8,37.8,37.8c20.8,0,37.7-17,37.7-37.8S406,254.7,385.2,254.7z M394.1,320.6
		l-4.7,1.5v-34.7c0-2.3-1.9-4.2-4.2-4.2c-2.3,0-4.2,1.8-4.2,4.2v34.7l-4.7-1.5c-12.3-3.9-20.6-15.2-20.6-28.1
		c0-16.2,13.2-29.5,29.5-29.5c16.2,0,29.4,13.2,29.4,29.5C414.6,305.5,406.4,316.7,394.1,320.6z"/>
	<path d="M489.6,307.2v-31.6c0-2.1-1.6-3.9-3.7-4.1l-0.1,0l-21.5-2.4l-0.7-2.2c-1.4-4.4-3.2-8.7-5.4-12.7l-1-2l12.5-17.7
		c1.2-1.6,1-3.9-0.4-5.3L447,206.8c-1.5-1.5-3.9-1.7-5.6-0.4L424.5,220l-2.1-1.1c-4.1-2.1-8.4-3.8-12.8-5.1l-2.2-0.7l-3.6-21.5
		c-0.3-2-2.1-3.4-4.1-3.4h-31.6c-2.1,0-3.9,1.6-4.2,3.7l-2.4,21.6l-2.2,0.7c-4.2,1.4-8.4,3.1-12.6,5.3l-2,1L327,208
		c-1.7-1.2-3.9-1-5.3,0.4l-22.4,22.4c-1.5,1.5-1.6,3.9-0.3,5.5l13.5,17l-1.1,2.1c-2.1,4.1-3.8,8.4-5.1,12.8l-0.7,2.1l-21.4,3.6
		c-2,0.4-3.5,2.1-3.5,4.1v31.6c0,2.1,1.6,3.9,3.7,4.1l21.5,2.4l0.7,2.2c1.3,4.1,3.1,8.3,5.4,12.7l1,2l-12.5,17.6
		c-1.2,1.7-1,3.9,0.5,5.4l22.3,22.3c1.5,1.5,3.9,1.6,5.5,0.3l16.9-13.4l2.1,1c4.4,2.2,8.6,3.8,12.7,5.1l2.2,0.7l3.6,21.5
		c0.3,2,2.1,3.5,4.1,3.5H381v24.5H113.3c-2.3,0-4.2,1.9-4.2,4.2v51.6c0,15.1,12.3,27.4,27.4,27.4h225.3c15.2,0,27.5-12.3,27.5-27.4
		v-76.8v-3.4l3.6-0.1h9.1c2.1,0,3.9-1.6,4.2-3.7l2.4-21.6l2.2-0.7c4.3-1.4,8.6-3.2,12.6-5.3l2-1l17.7,12.6c1.6,1.2,3.9,0.9,5.4-0.5
		l22.2-22.3c1.5-1.5,1.6-3.8,0.3-5.4l-13.5-17l1-2.1c2.1-4.2,3.8-8.5,5.2-12.8l0.7-2.1l21.4-3.7C488.1,311,489.6,309.2,489.6,307.2z
		 M381,477.2c0,10.5-8.6,19.1-19.2,19.1H136.6c-10.5,0-19.1-8.6-19.1-19.1v-43.8v-3.6h3.6H381L381,477.2z M481.2,303.7l-20.7,3.5
		c-1.7,0.3-3,1.5-3.4,3.2c-1.6,6.7-4.3,13.4-7.9,19.8c-0.9,1.5-0.8,3.3,0.3,4.7l12.9,16.3l-17.1,17.3l-17.2-12.2
		c-1.3-0.9-3.1-1-4.6-0.1c-6.1,3.8-12.7,6.5-19.6,8.2c-1.7,0.4-3,1.9-3.2,3.6l-2.3,20.7H374l-3.5-20.7c-0.2-1.6-1.5-2.9-3.1-3.3
		c-7-1.7-13.6-4.4-19.7-8.1c-1.5-0.9-3.4-0.7-4.7,0.3l-16.4,13l-17.2-17.2l12.1-16.9c0.8-1.1,1.1-3,0.1-4.8
		c-3.8-6.1-6.6-12.7-8.3-19.7c-0.4-1.7-1.8-2.9-3.5-3.1l-20.8-2.4v-24.2l20.7-3.5c1.7-0.3,3-1.5,3.4-3.2c1.7-7,4.4-13.7,8.1-19.8
		c0.9-1.5,0.8-3.4-0.3-4.8L308,234l17.2-17.2l17.1,12.2c1.4,1,3.2,1,4.6,0.2c6-3.7,12.6-6.5,19.7-8.3c1.7-0.4,2.9-1.8,3.1-3.6
		l2.3-20.7h24.4l3.5,20.7c0.3,1.7,1.5,3,3.1,3.4c7,1.6,13.7,4.4,19.9,8.1c1.5,0.9,3.4,0.7,4.7-0.3l16.3-13.1l17.2,17.3l-12.1,17
		c-0.7,1-1.2,2.8-0.1,4.7c3.7,6.1,6.5,12.7,8.3,19.6c0.4,1.7,1.8,2.9,3.6,3.1l20.7,2.3V303.7z"/>
</g>
</svg>
