<?xml version="1.0" encoding="utf-8"?>
<!-- Generator: Adobe Illustrator 24.0.0, SVG Export Plug-In . SVG Version: 6.00 Build 0)  -->
<svg version="1.1" id="Layer_1" xmlns="http://www.w3.org/2000/svg" xmlns:xlink="http://www.w3.org/1999/xlink" x="0px" y="0px"
	 viewBox="0 0 512 512" style="enable-background:new 0 0 512 512;" xml:space="preserve">
<g>
	<path d="M106.1,121.8c0-2.1-0.8-4.1-2.3-5.6s-3.5-2.3-5.6-2.3c-4.4,0-7.9,3.5-7.9,7.9s3.5,7.9,7.9,7.9S106.1,126.1,106.1,121.8z"/>
	<path d="M142.5,121.8c0-4.4-3.5-7.9-7.9-7.9s-7.9,3.5-7.9,7.9s3.5,7.9,7.9,7.9S142.5,126.1,142.5,121.8z"/>
	<path d="M178.9,121.8c0-4.4-3.5-7.9-7.9-7.9s-7.9,3.5-7.9,7.9s3.5,7.9,7.9,7.9S178.9,126.1,178.9,121.8z"/>
</g>
<path d="M494.7,52.7c-6.3-6.3-14.7-9.9-23.7-9.9H310.2c-2.2,0-3.9,1.8-3.9,3.9c0,2.1,1.8,3.9,3.9,3.9H471
	c14.1,0,25.6,11.5,25.6,25.6V338h-42.3V107.9c0-10.3-8.4-18.7-18.7-18.7H77.5c-10.3,0-18.7,8.4-18.7,18.7V338H16.5V76.3
	c0-14.1,11.5-25.6,25.6-25.6h238.7c2.2,0,3.9-1.8,3.9-3.9c0-2.1-1.8-3.9-3.9-3.9H42.1c-18.4,0-33.5,15-33.5,33.5v298.4
	c0,18.4,15,33.5,33.5,33.5h166.2l-8.3,63.6h-29.2c-2.2,0-3.9,1.8-3.9,3.9c0,2.1,1.8,3.9,3.9,3.9h171.8c2.2,0,3.9-1.8,3.9-3.9
	c0-2.1-1.8-3.9-3.9-3.9h-29.2l-8.3-63.6H387c2.2,0,3.9-1.8,3.9-3.9c0-2.2-1.8-3.9-3.9-3.9H42.1c-14.1,0-25.6-11.5-25.6-25.6v-28.8
	h480.1v28.8c0,14.1-11.5,25.6-25.6,25.6h-54.5c-2.2,0-3.9,1.8-3.9,3.9c0,2.2,1.8,3.9,3.9,3.9H471v-0.2c18.4,0,33.5-15,33.5-33.5
	V76.3C504.5,67.4,501,59,494.7,52.7z M296.9,408.1l8.3,63.6h-97.4l8.3-63.6H296.9z M66.6,107.8c0-6,4.9-10.8,10.8-10.8h358.2
	c6,0,10.8,4.9,10.8,10.8v39.8H66.6V107.8z M430,338h-26.2h-7.9h-0.1H278.2h-7.9h-27.4H235H117.3h-7.9H83H66.6V155.5h379.8V338H430z"
	/>
</svg>
