<?xml version="1.0" encoding="utf-8"?>
<!-- Generator: Adobe Illustrator 24.0.0, SVG Export Plug-In . SVG Version: 6.00 Build 0)  -->
<svg version="1.1" id="Capa_1" xmlns="http://www.w3.org/2000/svg" xmlns:xlink="http://www.w3.org/1999/xlink" x="0px" y="0px"
	 viewBox="0 0 330 330" style="enable-background:new 0 0 330 330;" xml:space="preserve">
<style type="text/css">
	.st0{fill:#FFFFFF;}
</style>
<g id="XMLID_26_">
	<path id="XMLID_27_" class="st0" d="M85,140c-13.8,0-25,11.2-25,25s11.2,25,25,25s25-11.2,25-25S98.8,140,85,140z"/>
	<path id="XMLID_29_" class="st0" d="M165,140c-13.8,0-25,11.2-25,25s11.2,25,25,25s25-11.2,25-25S178.8,140,165,140z"/>
	<path id="XMLID_31_" class="st0" d="M245,140c-13.8,0-25,11.2-25,25s11.2,25,25,25s25-11.2,25-25S258.8,140,245,140z"/>
	<path id="XMLID_85_" class="st0" d="M165,0C74,0,0,74,0,165s74,165,165,165s165-74,165-165S256,0,165,0z M165,300
		c-74.4,0-135-60.6-135-135S90.6,30,165,30s135,60.6,135,135S239.4,300,165,300z"/>
</g>
</svg>
