<?xml version="1.0" encoding="utf-8"?>
<!-- Generator: Adobe Illustrator 24.0.0, SVG Export Plug-In . SVG Version: 6.00 Build 0)  -->
<svg version="1.1" id="Layer_1" xmlns="http://www.w3.org/2000/svg" xmlns:xlink="http://www.w3.org/1999/xlink" x="0px" y="0px"
	 viewBox="0 0 492 492" style="enable-background:new 0 0 492 492;" xml:space="preserve">
<style type="text/css">
	.st0{fill:#FFFFFF;}
</style>
<path class="st0" d="M282.3,429.8c1.5,1.5,3.4,2.3,5.6,2.3c2.2,0,4.1-0.8,5.6-2.3l177.7-177.7c1.5-1.5,2.3-3.5,2.3-5.6
	c0-2.3-0.8-4.2-2.3-5.7l0,0L293.5,63c-1.5-1.5-3.4-2.3-5.6-2.3c-2.2,0-4.1,0.8-5.6,2.3l-16.1,16.1c-1.5,1.5-2.3,3.4-2.3,5.6
	c0,2.2,0.8,4.4,2.3,5.8l136,136.3H27.1c-4.4,0-7.6,3.1-7.6,7.5v22.8c0,4.6,3.5,8.6,7.6,8.6h376.5L266.2,402.8
	c-1.5,1.5-2.3,3.3-2.3,5.4c0,2.1,0.8,4,2.3,5.5L282.3,429.8z"/>
</svg>
